<?xml version="1.0" standalone="no"?>
<svg xmlns:xlink="http://www.w3.org/1999/xlink" id="wave" style="transform:rotate(0deg); transition: 0.3s" viewBox="0 0 1440 500" version="1.1" xmlns="http://www.w3.org/2000/svg"><defs><linearGradient id="sw-gradient-0" x1="0" x2="0" y1="1" y2="0"><stop stop-color="rgba(66, 77, 110, 1)" offset="0%"/><stop stop-color="rgba(66, 77, 110, 1)" offset="100%"/></linearGradient></defs><path style="transform:translate(0, 0px); opacity:1" fill="url(#sw-gradient-0)" d="M0,301L60,301C120,301,240,301,360,265.2C480,229,600,158,720,121.8C840,86,960,86,1080,129C1200,172,1320,258,1440,265.2C1560,272,1680,201,1800,150.5C1920,100,2040,72,2160,107.5C2280,143,2400,244,2520,293.8C2640,344,2760,344,2880,336.8C3000,330,3120,315,3240,286.7C3360,258,3480,215,3600,229.3C3720,244,3840,315,3960,308.2C4080,301,4200,215,4320,193.5C4440,172,4560,215,4680,215C4800,215,4920,172,5040,179.2C5160,186,5280,244,5400,222.2C5520,201,5640,100,5760,100.3C5880,100,6000,201,6120,215C6240,229,6360,158,6480,164.8C6600,172,6720,258,6840,258C6960,258,7080,172,7200,143.3C7320,115,7440,143,7560,172C7680,201,7800,229,7920,222.2C8040,215,8160,172,8280,157.7C8400,143,8520,158,8580,164.8L8640,172L8640,430L8580,430C8520,430,8400,430,8280,430C8160,430,8040,430,7920,430C7800,430,7680,430,7560,430C7440,430,7320,430,7200,430C7080,430,6960,430,6840,430C6720,430,6600,430,6480,430C6360,430,6240,430,6120,430C6000,430,5880,430,5760,430C5640,430,5520,430,5400,430C5280,430,5160,430,5040,430C4920,430,4800,430,4680,430C4560,430,4440,430,4320,430C4200,430,4080,430,3960,430C3840,430,3720,430,3600,430C3480,430,3360,430,3240,430C3120,430,3000,430,2880,430C2760,430,2640,430,2520,430C2400,430,2280,430,2160,430C2040,430,1920,430,1800,430C1680,430,1560,430,1440,430C1320,430,1200,430,1080,430C960,430,840,430,720,430C600,430,480,430,360,430C240,430,120,430,60,430L0,430Z"/><defs><linearGradient id="sw-gradient-1" x1="0" x2="0" y1="1" y2="0"><stop stop-color="rgba(54, 71, 99, 1)" offset="0%"/><stop stop-color="rgba(54, 71, 99, 1)" offset="100%"/></linearGradient></defs><path style="transform:translate(0, 50px); opacity:0.9" fill="url(#sw-gradient-1)" d="M0,301L60,258C120,215,240,129,360,136.2C480,143,600,244,720,236.5C840,229,960,115,1080,100.3C1200,86,1320,172,1440,200.7C1560,229,1680,201,1800,157.7C1920,115,2040,57,2160,43C2280,29,2400,57,2520,121.8C2640,186,2760,287,2880,286.7C3000,287,3120,186,3240,129C3360,72,3480,57,3600,107.5C3720,158,3840,272,3960,293.8C4080,315,4200,244,4320,243.7C4440,244,4560,315,4680,344C4800,373,4920,358,5040,293.8C5160,229,5280,115,5400,57.3C5520,0,5640,0,5760,14.3C5880,29,6000,57,6120,93.2C6240,129,6360,172,6480,179.2C6600,186,6720,158,6840,143.3C6960,129,7080,129,7200,114.7C7320,100,7440,72,7560,93.2C7680,115,7800,186,7920,186.3C8040,186,8160,115,8280,107.5C8400,100,8520,158,8580,186.3L8640,215L8640,430L8580,430C8520,430,8400,430,8280,430C8160,430,8040,430,7920,430C7800,430,7680,430,7560,430C7440,430,7320,430,7200,430C7080,430,6960,430,6840,430C6720,430,6600,430,6480,430C6360,430,6240,430,6120,430C6000,430,5880,430,5760,430C5640,430,5520,430,5400,430C5280,430,5160,430,5040,430C4920,430,4800,430,4680,430C4560,430,4440,430,4320,430C4200,430,4080,430,3960,430C3840,430,3720,430,3600,430C3480,430,3360,430,3240,430C3120,430,3000,430,2880,430C2760,430,2640,430,2520,430C2400,430,2280,430,2160,430C2040,430,1920,430,1800,430C1680,430,1560,430,1440,430C1320,430,1200,430,1080,430C960,430,840,430,720,430C600,430,480,430,360,430C240,430,120,430,60,430L0,430Z"/><defs><linearGradient id="sw-gradient-2" x1="0" x2="0" y1="1" y2="0"><stop stop-color="rgba(44, 57, 90, 1)" offset="0%"/><stop stop-color="rgba(44, 57, 90, 1)" offset="100%"/></linearGradient></defs><path style="transform:translate(0, 100px); opacity:0.8" fill="url(#sw-gradient-2)" d="M0,86L60,107.5C120,129,240,172,360,215C480,258,600,301,720,286.7C840,272,960,201,1080,143.3C1200,86,1320,43,1440,43C1560,43,1680,86,1800,121.8C1920,158,2040,186,2160,186.3C2280,186,2400,158,2520,172C2640,186,2760,244,2880,229.3C3000,215,3120,129,3240,114.7C3360,100,3480,158,3600,172C3720,186,3840,158,3960,150.5C4080,143,4200,158,4320,136.2C4440,115,4560,57,4680,71.7C4800,86,4920,172,5040,229.3C5160,287,5280,315,5400,322.5C5520,330,5640,315,5760,272.3C5880,229,6000,158,6120,150.5C6240,143,6360,201,6480,215C6600,229,6720,201,6840,222.2C6960,244,7080,315,7200,308.2C7320,301,7440,215,7560,215C7680,215,7800,301,7920,315.3C8040,330,8160,272,8280,207.8C8400,143,8520,72,8580,35.8L8640,0L8640,430L8580,430C8520,430,8400,430,8280,430C8160,430,8040,430,7920,430C7800,430,7680,430,7560,430C7440,430,7320,430,7200,430C7080,430,6960,430,6840,430C6720,430,6600,430,6480,430C6360,430,6240,430,6120,430C6000,430,5880,430,5760,430C5640,430,5520,430,5400,430C5280,430,5160,430,5040,430C4920,430,4800,430,4680,430C4560,430,4440,430,4320,430C4200,430,4080,430,3960,430C3840,430,3720,430,3600,430C3480,430,3360,430,3240,430C3120,430,3000,430,2880,430C2760,430,2640,430,2520,430C2400,430,2280,430,2160,430C2040,430,1920,430,1800,430C1680,430,1560,430,1440,430C1320,430,1200,430,1080,430C960,430,840,430,720,430C600,430,480,430,360,430C240,430,120,430,60,430L0,430Z"/></svg>